<svg class="main-svg" xmlns="http://www.w3.org/2000/svg" xmlns:xlink="http://www.w3.org/1999/xlink" width="700" height="500" style="" viewBox="0 0 700 500"><rect x="0" y="0" width="700" height="500" style="fill: rgb(255, 255, 255); fill-opacity: 1;"/><defs id="defs-b38ce9"><g class="clips"><clipPath id="clipb38ce9xyplot" class="plotclip"><rect width="510" height="320"/></clipPath><clipPath class="axesclip" id="clipb38ce9x"><rect x="80" y="0" width="510" height="500"/></clipPath><clipPath class="axesclip" id="clipb38ce9y"><rect x="0" y="100" width="700" height="320"/></clipPath><clipPath class="axesclip" id="clipb38ce9xy"><rect x="80" y="100" width="510" height="320"/></clipPath></g><g class="gradients"/><g class="patterns"/></defs><g class="bglayer"><rect class="bg" x="80" y="100" width="510" height="320" style="fill: rgb(229, 236, 246); fill-opacity: 1; stroke-width: 0;"/></g><g class="layer-below"><g class="imagelayer"/><g class="shapelayer"/></g><g class="cartesianlayer"><g class="subplot xy"><g class="layer-subplot"><g class="shapelayer"/><g class="imagelayer"/></g><g class="minor-gridlayer"><g class="x"/><g class="y"/></g><g class="gridlayer"><g class="x"><path class="xgrid crisp" transform="translate(215.88,0)" d="M0,100v320" style="stroke: rgb(255, 255, 255); stroke-opacity: 1; stroke-width: 1px;"/><path class="xgrid crisp" transform="translate(351.75,0)" d="M0,100v320" style="stroke: rgb(255, 255, 255); stroke-opacity: 1; stroke-width: 1px;"/><path class="xgrid crisp" transform="translate(487.63,0)" d="M0,100v320" style="stroke: rgb(255, 255, 255); stroke-opacity: 1; stroke-width: 1px;"/></g><g class="y"><path class="ygrid crisp" transform="translate(0,378.25)" d="M80,0h510" style="stroke: rgb(255, 255, 255); stroke-opacity: 1; stroke-width: 1px;"/><path class="ygrid crisp" transform="translate(0,335.33000000000004)" d="M80,0h510" style="stroke: rgb(255, 255, 255); stroke-opacity: 1; stroke-width: 1px;"/><path class="ygrid crisp" transform="translate(0,292.4)" d="M80,0h510" style="stroke: rgb(255, 255, 255); stroke-opacity: 1; stroke-width: 1px;"/><path class="ygrid crisp" transform="translate(0,249.48)" d="M80,0h510" style="stroke: rgb(255, 255, 255); stroke-opacity: 1; stroke-width: 1px;"/><path class="ygrid crisp" transform="translate(0,206.56)" d="M80,0h510" style="stroke: rgb(255, 255, 255); stroke-opacity: 1; stroke-width: 1px;"/><path class="ygrid crisp" transform="translate(0,163.64)" d="M80,0h510" style="stroke: rgb(255, 255, 255); stroke-opacity: 1; stroke-width: 1px;"/><path class="ygrid crisp" transform="translate(0,120.72)" d="M80,0h510" style="stroke: rgb(255, 255, 255); stroke-opacity: 1; stroke-width: 1px;"/></g></g><g class="zerolinelayer"/><g class="layer-between"><g class="shapelayer"/><g class="imagelayer"/></g><path class="xlines-below"/><path class="ylines-below"/><g class="overlines-below"/><g class="xaxislayer-below"/><g class="yaxislayer-below"/><g class="overaxes-below"/><g class="overplot"><g class="xy" transform="translate(80,100)" clip-path="url(#clipb38ce9xyplot)"><g class="scatterlayer mlayer"><g class="trace scatter trace3e7471" style="stroke-miterlimit: 2; opacity: 1;"><g class="fills"/><g class="errorbars"/><g class="lines"><path class="js-line" d="M0,286.83L0.37,273.95L0.74,304L1.49,278.25L1.86,285.4L2.23,295.42L3.35,290.27L3.72,287.61L4.09,289.69L4.47,286.17L5.58,283.08L5.96,284.31L6.33,281.11L6.7,283.67L7.07,282.54L7.82,282.15L8.19,284.22L9.31,281.22L9.68,279.52L10.42,278.54L10.8,281.39L11.17,283.11L11.54,282.25L11.91,278.82L12.66,282.83L13.03,282.25L13.4,280.54L13.77,281.39L14.15,279.11L14.52,280.25L14.89,279.68L15.26,277.96L16.38,281.39L16.75,280.54L17.12,278.25L17.5,279.68L17.87,279.39L18.61,281.11L18.99,279.68L20.1,274.24L20.47,276.82L21.22,282.25L21.59,281.68L21.96,275.39L22.34,271.09L22.71,272.52L23.08,271.95L27.92,250.78L28.29,253.07L29.04,250.49L29.41,247.92L30.53,244.77L30.9,247.34L31.27,249.92L31.64,248.49L32.01,246.2L32.76,238.47L33.13,239.33L33.5,240.48L34.25,243.34L34.62,239.62L34.99,240.48L35.36,234.75L36.48,227.31L36.85,227.03L37.97,219.3L38.34,219.59L38.72,220.45L40.2,213.01L40.58,212.72L40.95,211.58L41.32,212.72L41.69,209L43.55,194.12L43.93,196.12L44.67,198.98L45.04,196.98L46.16,193.83L46.53,200.42L47.65,204.99L48.02,204.42L48.39,204.14L48.77,198.41L50.26,207.28L50.63,203.56L51,196.12L51.37,198.7L51.74,199.27L52.86,205.57L53.23,209.86L53.61,208.43L53.98,209.57L54.35,213.86L54.72,213.86L55.09,210.72L56.58,198.13L56.96,198.41L57.33,199.27L59.56,187.25L59.93,192.4L60.31,191.26L60.68,186.39L61.05,184.96L61.42,180.39L62.54,187.54L62.91,185.54L64.4,173.23L64.77,178.38L65.89,172.09L66.26,172.95L66.64,172.37L67.01,173.23L67.38,176.38L67.75,175.52L68.12,175.52L69.61,171.52L69.99,173.23L70.36,172.66L70.73,173.52L71.47,172.09L71.85,169.51L72.96,172.37L73.34,170.66L73.71,167.51L74.08,169.8L74.45,169.23L74.82,172.37L75.2,172.09L75.57,171.23L77.06,164.08L77.43,164.65L77.8,164.36L78.18,167.51L79.29,163.79L79.66,164.65L80.04,165.79L80.41,170.94L81.53,177.81L81.9,177.81L82.27,177.24L82.64,173.23L83.76,183.82L84.13,182.39L84.5,182.96L84.88,185.54L85.25,182.1L85.62,187.25L86.74,190.4L87.11,188.68L87.48,188.4L87.85,190.11L88.97,194.69L89.34,192.69L91.2,200.42L91.58,199.27L92.32,199.27L92.69,196.12L93.07,192.69L93.44,194.41L93.81,201.27L94.18,197.27L94.55,198.13L94.93,198.7L96.42,205.85L96.79,204.71L98.28,197.84L98.65,201.85L99.02,201.85L99.39,204.99L100.51,205.85L100.88,203.85L102,200.7L102.37,202.7L102.74,202.42L103.12,203.56L103.49,204.42L103.86,209.86L104.23,216.73L104.61,216.44L104.98,213.86L105.35,217.58L105.72,215.3L106.09,214.44L106.47,213.58L106.84,215.01L107.58,209.86L107.96,210.43L108.33,212.72L108.7,209L109.07,214.15L109.82,218.73L110.19,217.58L111.31,213.86L111.68,214.15L112.05,215.87L112.8,220.16L113.17,219.02L115.4,207.28L115.77,208.71L116.15,209.86L116.52,206.14L116.89,208.43L117.26,209L118.01,211L118.38,209.57L119.5,205.28L119.87,208.43L120.99,203.28L121.36,204.99L121.73,199.84L122.1,202.99L122.47,204.42L123.96,197.84L124.34,199.56L125.45,204.71L125.82,207.86L128.43,223.31L128.8,222.73L129.55,225.02L129.92,231.03L131.41,241.91L131.78,240.48L132.15,239.9L132.53,245.05L134.01,258.79L134.39,263.94L134.76,264.51L135.13,270.23L135.5,270.52L135.88,269.38L136.25,271.67L136.62,270.23L136.99,268.52L137.36,265.37L137.74,269.66L138.11,270.81L138.48,269.95L138.85,269.09L139.6,262.8L139.97,263.08L140.34,267.09L141.09,263.94L141.46,264.23L141.83,261.36L142.2,262.22L142.58,260.51L143.32,267.37L143.69,262.51L145.93,257.93L146.3,254.21L147.04,255.07L147.42,253.35L147.79,252.21L148.16,253.07L148.53,256.5L148.91,257.07L149.28,256.5L149.65,254.21L150.02,251.64L150.39,252.49L150.77,255.07L151.51,252.78L151.88,257.64L152.26,256.79L152.63,253.92L154.12,257.93L154.49,257.07L155.23,258.22L155.61,254.21L156.35,258.22L156.72,255.36L157.09,256.5L157.47,261.08L159.7,251.35L160.07,245.34L162.68,231.03L163.05,223.59L163.8,222.45L164.17,219.02L164.91,215.01L165.28,211.58L166.4,205.85L166.77,208.71L168.64,189.26L169.01,190.11L169.38,189.54L169.75,190.69L170.12,191.83L170.5,190.69L170.87,190.69L171.24,189.54L171.61,190.97L171.99,196.41L172.36,195.55L172.73,191.26L173.1,193.55L173.47,192.4L173.85,187.54L174.22,187.54L174.59,189.26L175.34,191.26L175.71,188.68L176.45,183.82L176.82,184.39L177.2,186.97L179.06,175.81L179.43,179.53L179.8,184.96L180.18,178.1L180.55,178.38L180.92,176.95L181.66,171.52L182.04,173.8L182.41,175.52L182.78,174.09L183.15,171.8L183.53,169.8L183.9,172.09L184.27,164.93L184.64,167.51L185.01,171.23L185.76,174.66L186.13,167.22L186.88,162.93L187.25,166.65L187.62,167.8L187.99,167.22L188.36,165.79L188.74,167.8L189.11,166.36L189.48,167.22L190.23,170.08L190.6,164.93L190.97,162.36L191.34,167.22L192.09,162.64L192.46,163.79L192.83,165.79L194.69,157.21L195.07,159.21L195.44,164.36L195.81,162.36L196.18,162.64L196.93,152.63L197.3,156.35L197.67,158.64L198.04,162.36L198.42,160.07L198.79,160.07L199.16,162.36L199.53,158.64L199.91,154.35L200.28,155.78L200.65,158.35L202.51,147.19L202.88,150.34L203.63,153.49L204,152.34L205.12,144.33L205.49,149.2L205.86,152.63L206.23,149.2L206.61,150.63L206.98,150.05L207.35,150.91L207.72,149.77L208.09,155.2L208.47,156.92L208.84,154.06L209.96,148.91L210.33,140.04L211.07,146.33L211.45,144.62L211.82,142.33L212.93,132.03L213.31,133.74L213.68,134.89L214.05,132.31L214.42,133.17L214.8,132.6L215.17,131.17L215.54,132.31L215.91,136.03L216.66,140.04L217.03,139.18L217.4,142.33L217.77,137.46L218.52,142.04L218.89,146.05L220.38,142.9L220.75,137.75L221.5,149.2L221.87,147.48L222.24,149.2L222.61,148.34L222.99,150.63L223.36,150.05L223.73,155.78L224.85,162.07L225.22,161.21L225.96,163.79L226.34,169.23L227.08,167.8L227.45,169.51L227.82,168.65L228.2,168.94L228.57,165.51L229.31,168.08L229.69,161.21L230.43,162.93L230.8,160.07L231.18,158.92L231.55,164.93L232.66,174.09L233.04,172.95L233.78,171.23L234.15,171.8L234.53,174.09L234.9,172.66L235.27,175.52L235.64,176.09L236.01,173.52L236.76,176.95L237.13,180.1L237.5,179.24L237.88,181.53L238.99,173.23L239.36,174.95L239.74,181.53L240.85,186.97L241.23,184.11L241.6,182.39L241.97,190.4L242.34,189.54L242.72,186.11L243.46,184.39L243.83,180.96L244.2,181.53L244.58,185.25L244.95,186.68L245.32,183.25L246.07,190.11L246.44,185.25L246.81,185.82L247.18,188.97L247.55,190.4L247.93,189.54L248.3,186.68L249.42,175.23L249.79,177.24L250.16,181.24L250.53,179.24L250.91,175.23L252.02,172.66L252.39,178.67L253.14,174.95L253.51,177.81L253.88,178.1L254.26,175.81L254.63,174.09L255,175.81L255.37,176.38L256.12,172.95L256.49,176.95L257.23,169.8L257.61,176.09L257.98,177.81L258.35,176.95L258.72,174.95L259.47,172.37L259.84,175.23L260.96,190.97L261.33,192.12L262.82,202.99L263.19,202.7L263.56,199.84L263.93,206.14L264.68,204.14L265.05,205.28L267.28,224.74L267.66,224.74L268.4,233.61L268.77,232.75L269.15,233.61L269.52,233.32L269.89,237.04L270.26,235.61L270.64,240.76L271.01,243.34L271.38,239.62L271.75,243.91L272.12,241.62L272.5,241.91L272.87,238.76L273.24,240.19L273.61,243.05L274.73,246.2L275.1,244.48L276.22,249.92L276.59,249.63L276.96,249.35L277.34,249.92L277.71,247.92L278.08,247.92L278.45,249.92L278.82,251.06L279.2,248.49L279.57,249.92L279.94,249.35L280.31,246.48L281.43,251.35L281.8,250.78L282.18,250.2L282.92,246.77L283.29,243.34L283.66,243.91L284.04,247.06L285.15,241.62L285.53,242.48L286.64,237.33L287.01,235.61L288.5,230.46L288.88,234.47L290.74,228.74L291.11,229.32L291.48,233.04L292.23,236.76L292.6,235.04L292.97,234.18L293.34,234.47L293.72,229.03L294.09,227.03L294.46,229.03L294.83,229.89L296.32,221.02L296.69,221.3L297.07,225.02L298.18,222.45L298.55,223.31L300.04,215.01L300.42,215.3L300.79,214.72L301.16,215.01L301.53,215.87L301.91,217.87L302.28,216.44L302.65,214.44L304.14,204.42L304.51,204.71L304.88,212.72L305.26,210.72L305.63,210.72L306.74,197.84L307.12,200.7L307.49,202.99L307.86,201.56L308.23,197.84L308.61,195.84L308.98,197.55L309.35,196.41L309.72,194.98L310.09,198.41L311.58,191.26L311.96,187.83L312.33,188.11L312.7,187.25L314.93,177.24L315.31,179.24L317.17,167.51L317.54,172.66L317.91,175.52L318.28,172.09L319.4,169.8L319.77,163.22L320.15,163.79L320.52,165.79L320.89,165.79L321.26,166.94L321.64,166.94L322.01,160.36L322.38,160.93L322.75,168.08L323.5,168.65L323.87,167.22L324.99,162.36L325.36,165.51L325.73,166.36L326.1,162.93L327.22,160.64L327.59,161.5L328.34,167.8L328.71,162.93L329.45,160.07L329.82,155.78L330.2,152.06L330.57,153.77L330.94,160.07L332.8,142.9L333.18,149.48L333.55,151.2L333.92,146.62L335.41,136.89L335.78,139.18L336.15,140.04L336.53,136.61L336.9,138.04L337.27,137.46L337.64,133.46L338.01,129.74L338.39,134.32L338.76,134.89L339.13,132.89L340.62,120.87L340.99,124.02L341.36,126.59L341.74,125.16L342.11,121.44L342.48,121.15L342.85,117.72L343.23,109.99L343.6,114.57L343.97,119.15L345.09,105.42L345.46,106.85L345.83,107.42L346.58,111.42L346.95,109.71L347.32,111.14L348.44,99.69L348.81,101.98L349.18,105.99L349.93,98.55L350.3,99.41L350.67,100.84L351.42,108.56L351.79,113.71L352.16,113.71L352.53,115.14L352.91,115.43L353.28,118.01L353.65,118.86L354.02,125.45L355.14,135.17L355.51,137.46L356.26,141.18L356.63,144.33L357,148.34L357.37,143.19L357.74,142.33L358.12,142.9L358.49,139.47L358.86,140.04L359.23,145.48L359.98,152.63L360.35,149.77L361.09,152.92L361.47,150.05L361.84,150.91L362.21,155.2L363.33,157.78L363.7,155.78L364.07,156.64L364.45,160.64L364.82,160.07L365.19,156.64L365.93,156.35L366.31,152.63L366.68,149.48L367.05,152.92L368.54,157.49L368.91,156.64L369.28,157.21L369.66,165.22L370.03,168.08L370.4,166.36L370.77,162.07L371.15,160.64L371.52,166.08L373.01,174.66L373.38,174.09L373.75,172.66L374.5,170.37L374.87,172.37L375.24,172.95L375.61,171.23L376.36,175.81L376.73,175.52L377.1,172.95L377.85,180.67L378.22,179.24L378.59,182.1L378.96,183.53L379.34,180.96L379.71,180.39L380.08,181.82L380.45,182.39L380.82,174.95L381.94,178.67L382.31,178.95L383.8,184.96L384.18,184.68L384.55,181.53L384.92,182.1L385.29,185.82L386.41,187.83L386.78,186.39L387.53,182.39L387.9,183.53L388.27,184.96L390.13,172.37L390.5,176.67L391.99,181.24L392.36,176.95L392.74,176.38L393.11,178.1L393.48,178.95L393.85,174.38L395.34,157.78L395.72,161.21L396.83,158.07L397.2,158.92L398.69,173.52L399.07,178.38L399.44,178.67L399.81,180.39L400.93,190.97L401.3,196.98L401.67,195.84L402.04,198.98L402.42,197.55L402.79,197.84L403.16,200.13L405.39,226.17L405.77,226.45L406.88,241.33L407.26,240.76L407.63,242.19L408,244.48L408.37,243.62L408.74,243.34L410.23,233.32L410.61,233.89L411.72,231.32L412.09,231.61L413.21,227.03L413.58,228.17L414.33,234.47L414.7,233.04L415.07,233.61L416.19,228.17L416.56,231.61L416.93,234.75L417.31,232.75L417.68,232.18L418.05,230.46L418.42,234.47L418.8,231.89L419.17,233.04L419.54,233.32L421.03,226.17L421.4,227.6L422.15,231.03L422.52,229.32L422.89,232.46L423.26,231.32L423.64,230.46L424.38,234.18L424.75,236.76L426.24,224.17L426.61,225.88L427.36,226.74L427.73,223.31L429.22,215.58L429.59,216.73L430.71,213.29L431.08,215.58L431.82,212.15L432.2,218.44L432.94,220.73L433.31,219.3L437.04,192.98L437.41,197.84L439.64,183.53L440.01,184.68L440.39,184.68L440.76,178.1L441.13,180.1L441.5,177.24L442.25,168.65L442.62,172.66L444.85,154.35L445.23,159.21L445.6,158.92L445.97,162.07L447.09,165.22L447.46,164.65L448.2,172.95L448.58,172.09L448.95,170.66L450.07,161.79L450.44,166.65L451.18,170.94L451.55,170.08L452.67,162.36L453.04,164.93L453.42,166.65L453.79,161.5L454.16,164.08L454.53,160.36L455.65,158.35L456.02,163.22L458.26,144.33L458.63,143.76L460.12,130.88L460.49,132.6L460.86,130.88L461.23,135.17L461.61,134.6L461.98,129.17L462.35,129.45L462.72,123.44L463.47,128.02L463.84,132.89L464.21,130.31L464.58,132.31L464.96,132.89L467.19,118.29L467.56,119.15L467.93,118.01L468.31,114.57L468.68,116.29L469.05,120.58L469.42,119.44L469.8,120.01L470.17,122.01L470.54,121.73L470.91,117.72L471.66,121.44L472.03,120.01L472.4,120.01L472.77,118.58L473.15,118.29L473.52,109.14L474.64,117.15L475.01,113.71L475.38,113.14" style="vector-effect: none; fill: none; stroke: rgb(99, 110, 250); stroke-opacity: 1; stroke-width: 2px; opacity: 1;"/></g><g class="points"/><g class="text"/></g><g class="trace scatter trace244b0a" style="stroke-miterlimit: 2; opacity: 1;"><g class="fills"/><g class="errorbars"/><g class="lines"><path class="js-line" d="M475.75,78.06L476.12,72.69L476.5,100.87L477.61,109.27L477.99,107.21L478.73,97.44L479.1,102.52L480.22,104.25L480.59,103.15L481.34,97.67L481.71,100.53L482.82,102.13L483.2,101.71L483.94,98.62L484.31,101L485.8,103.63L486.18,103L486.55,102.18L486.92,105.32L488.04,107.77L488.41,107.92L489.15,107.62L489.53,111.58L490.64,116.17L491.01,116.92L491.76,117.57L492.13,121.87L493.25,126.95L493.62,127.67L494.36,127.99L494.74,132L495.85,135.79L496.23,135.97L496.97,135.12L497.34,138.5L497.72,141.02L498.09,140.37L498.46,140.44L499.58,138.13L499.95,141.07L500.32,143.2L500.69,142.21L501.07,142.02L502.18,139.33L502.55,142.28L502.93,144.48L503.3,143.63L503.67,143.62L504.79,141.74L505.16,145.01L505.53,147.54L505.91,147.03L506.28,147.36L507.02,146.78L507.39,146.4L508.14,152.68L508.51,152.34L508.88,152.8L509.63,152.33L510,151.94" style="vector-effect: none; fill: none; stroke: rgb(239, 85, 59); stroke-opacity: 1; stroke-width: 2px; opacity: 1;"/></g><g class="points"/><g class="text"/></g><g class="trace scatter trace8d6b52" style="stroke-miterlimit: 2;"><g class="fills"><g><path class="js-fill" d="M475.75,137.71L476.12,130.88L476.5,158.71L477.24,166.89L477.61,166.73L477.99,165.03L478.73,155.73L479.1,161.1L480.22,162.79L480.59,161.71L481.34,156.4L481.71,159.26L482.82,161.11L483.2,160.58L483.94,157.52L484.31,159.73L485.8,162.26L486.18,161.7L486.55,161.01L486.92,164.18L488.04,166.85L488.41,167.14L489.15,166.68L489.53,170.52L490.64,175.2L491.01,175.89L491.76,176.24L492.13,180.47L493.25,185.56L493.62,186.18L494.36,186.52L494.74,190.44L495.85,194.58L496.23,194.78L496.97,193.91L497.34,197.18L497.72,199.67L498.09,199.04L498.46,199.06L499.2,197.61L499.58,196.63L500.32,201.73L500.69,200.85L501.07,200.63L502.18,197.64L502.55,200.64L502.93,203.05L503.3,202.12L503.67,202.24L504.79,200.18L505.16,203.47L505.53,206.14L505.91,205.51L506.28,205.81L507.02,205.33L507.39,205.05L508.14,211.56L508.51,211.26L508.88,211.57L510,210.41L510,93.28L509.63,93.76L508.88,94.34L508.51,93.95L508.14,94.51L507.77,91.88L507.39,88.5L507.02,88.92L506.65,89.66L506.28,89.62L505.91,89.37L505.53,89.82L504.79,84.1L504.42,84.76L503.67,85.98L503.3,86.07L502.93,86.9L502.55,84.57L502.18,81.77L501.07,84.28L500.69,84.48L500.32,85.49L499.58,80.43L499.2,81.36L498.46,82.87L498.09,82.78L497.72,83.57L497.34,81.1L496.97,77.62L496.23,78.3L495.85,78.16L494.74,74.13L494.36,70.12L493.62,69.81L493.25,68.91L492.13,63.48L491.76,59.22L491.01,58.44L490.64,57.72L489.53,53.35L489.15,49.35L488.41,49.83L488.04,49.57L486.92,47.05L486.55,43.87L486.18,44.61L485.8,45.22L484.31,42.55L483.94,40.32L483.57,41.93L483.2,43.31L482.82,43.72L482.08,42.97L481.71,42.26L481.34,39.67L480.59,45.22L480.22,46.45L479.85,46.77L479.1,45.06L478.73,39.82L477.99,49.56L477.61,50.96L476.5,43.06L476.12,16L475.75,20.1Z" style="fill: rgb(171, 99, 250); fill-opacity: 0.5; stroke-width: 0;"/></g></g><g class="errorbars"/><g class="lines"><path class="js-line" d="M475.75,20.1L476.12,16L476.5,43.06L477.61,50.96L477.99,49.56L478.73,39.82L479.1,45.06L479.85,46.77L480.22,46.45L480.59,45.22L481.34,39.67L481.71,42.26L482.08,42.97L482.82,43.72L483.2,43.31L483.57,41.93L483.94,40.32L484.31,42.55L485.8,45.22L486.18,44.61L486.55,43.87L486.92,47.05L488.04,49.57L488.41,49.83L489.15,49.35L489.53,53.35L490.64,57.72L491.01,58.44L491.76,59.22L492.13,63.48L493.25,68.91L493.62,69.81L494.36,70.12L494.74,74.13L495.85,78.16L496.23,78.3L496.97,77.62L497.34,81.1L497.72,83.57L498.09,82.78L498.46,82.87L499.2,81.36L499.58,80.43L500.32,85.49L500.69,84.48L501.07,84.28L502.18,81.77L502.55,84.57L502.93,86.9L503.3,86.07L503.67,85.98L504.42,84.76L504.79,84.1L505.53,89.82L505.91,89.37L506.28,89.62L506.65,89.66L507.02,88.92L507.39,88.5L507.77,91.88L508.14,94.51L508.51,93.95L508.88,94.34L509.63,93.76L510,93.28" style="vector-effect: none; fill: none; stroke: rgb(0, 204, 150); stroke-opacity: 1; stroke-width: 0px; opacity: 1;"/></g><g class="points"/><g class="text"/></g><g class="trace scatter traceed9beb" style="stroke-miterlimit: 2;"><g class="fills"/><g class="errorbars"/><g class="lines"><path class="js-line" d="M475.75,137.71L476.12,130.88L476.5,158.71L477.24,166.89L477.61,166.73L477.99,165.03L478.73,155.73L479.1,161.1L480.22,162.79L480.59,161.71L481.34,156.4L481.71,159.26L482.82,161.11L483.2,160.58L483.94,157.52L484.31,159.73L485.8,162.26L486.18,161.7L486.55,161.01L486.92,164.18L488.04,166.85L488.41,167.14L489.15,166.68L489.53,170.52L490.64,175.2L491.01,175.89L491.76,176.24L492.13,180.47L493.25,185.56L493.62,186.18L494.36,186.52L494.74,190.44L495.85,194.58L496.23,194.78L496.97,193.91L497.34,197.18L497.72,199.67L498.09,199.04L498.46,199.06L499.2,197.61L499.58,196.63L500.32,201.73L500.69,200.85L501.07,200.63L502.18,197.64L502.55,200.64L502.93,203.05L503.3,202.12L503.67,202.24L504.79,200.18L505.16,203.47L505.53,206.14L505.91,205.51L506.28,205.81L507.02,205.33L507.39,205.05L508.14,211.56L508.51,211.26L508.88,211.57L510,210.41" style="vector-effect: none; fill: none; stroke: rgb(171, 99, 250); stroke-opacity: 1; stroke-width: 0px; opacity: 1;"/></g><g class="points"/><g class="text"/></g></g></g></g><path class="xlines-above crisp" d="M0,0" style="fill: none;"/><path class="ylines-above crisp" d="M0,0" style="fill: none;"/><g class="overlines-above"/><g class="xaxislayer-above"><g class="xtick"><text text-anchor="middle" x="0" y="433" transform="translate(80,0)" style="font-family: 'Open Sans', verdana, arial, sans-serif; font-size: 12px; fill: rgb(42, 63, 95); fill-opacity: 1; white-space: pre; opacity: 1;">2013</text></g><g class="xtick"><text text-anchor="middle" x="0" y="433" style="font-family: 'Open Sans', verdana, arial, sans-serif; font-size: 12px; fill: rgb(42, 63, 95); fill-opacity: 1; white-space: pre; opacity: 1;" transform="translate(215.88,0)">2014</text></g><g class="xtick"><text text-anchor="middle" x="0" y="433" style="font-family: 'Open Sans', verdana, arial, sans-serif; font-size: 12px; fill: rgb(42, 63, 95); fill-opacity: 1; white-space: pre; opacity: 1;" transform="translate(351.75,0)">2015</text></g><g class="xtick"><text text-anchor="middle" x="0" y="433" style="font-family: 'Open Sans', verdana, arial, sans-serif; font-size: 12px; fill: rgb(42, 63, 95); fill-opacity: 1; white-space: pre; opacity: 1;" transform="translate(487.63,0)">2016</text></g></g><g class="yaxislayer-above"><g class="ytick"><text text-anchor="end" x="79" y="4.199999999999999" transform="translate(0,378.25)" style="font-family: 'Open Sans', verdana, arial, sans-serif; font-size: 12px; fill: rgb(42, 63, 95); fill-opacity: 1; white-space: pre; opacity: 1;">15</text></g><g class="ytick"><text text-anchor="end" x="79" y="4.199999999999999" style="font-family: 'Open Sans', verdana, arial, sans-serif; font-size: 12px; fill: rgb(42, 63, 95); fill-opacity: 1; white-space: pre; opacity: 1;" transform="translate(0,335.33000000000004)">20</text></g><g class="ytick"><text text-anchor="end" x="79" y="4.199999999999999" style="font-family: 'Open Sans', verdana, arial, sans-serif; font-size: 12px; fill: rgb(42, 63, 95); fill-opacity: 1; white-space: pre; opacity: 1;" transform="translate(0,292.4)">25</text></g><g class="ytick"><text text-anchor="end" x="79" y="4.199999999999999" style="font-family: 'Open Sans', verdana, arial, sans-serif; font-size: 12px; fill: rgb(42, 63, 95); fill-opacity: 1; white-space: pre; opacity: 1;" transform="translate(0,249.48)">30</text></g><g class="ytick"><text text-anchor="end" x="79" y="4.199999999999999" style="font-family: 'Open Sans', verdana, arial, sans-serif; font-size: 12px; fill: rgb(42, 63, 95); fill-opacity: 1; white-space: pre; opacity: 1;" transform="translate(0,206.56)">35</text></g><g class="ytick"><text text-anchor="end" x="79" y="4.199999999999999" style="font-family: 'Open Sans', verdana, arial, sans-serif; font-size: 12px; fill: rgb(42, 63, 95); fill-opacity: 1; white-space: pre; opacity: 1;" transform="translate(0,163.64)">40</text></g><g class="ytick"><text text-anchor="end" x="79" y="4.199999999999999" style="font-family: 'Open Sans', verdana, arial, sans-serif; font-size: 12px; fill: rgb(42, 63, 95); fill-opacity: 1; white-space: pre; opacity: 1;" transform="translate(0,120.72)">45</text></g></g><g class="overaxes-above"/></g></g><g class="polarlayer"/><g class="smithlayer"/><g class="ternarylayer"/><g class="geolayer"/><g class="funnelarealayer"/><g class="pielayer"/><g class="iciclelayer"/><g class="treemaplayer"/><g class="sunburstlayer"/><g class="glimages"/><defs id="topdefs-b38ce9"><g class="clips"/><clipPath id="legendb38ce9"><rect width="88" height="86" x="0" y="0"/></clipPath></defs><g class="layer-above"><g class="imagelayer"/><g class="shapelayer"/></g><g class="infolayer"><g class="legend" pointer-events="all" transform="translate(600.2,100)"><rect class="bg" shape-rendering="crispEdges" style="stroke: rgb(68, 68, 68); stroke-opacity: 1; fill: rgb(255, 255, 255); fill-opacity: 1; stroke-width: 0px;" width="88" height="86" x="0" y="0"/><g class="scrollbox" transform="" clip-path="url(#legendb38ce9)"><g class="groups"><g class="traces" transform="translate(0,14.5)" style="opacity: 1;"><text class="legendtext" text-anchor="start" x="40" y="4.680000000000001" style="font-family: 'Open Sans', verdana, arial, sans-serif; font-size: 12px; fill: rgb(42, 63, 95); fill-opacity: 1; white-space: pre;">trace 3</text><g class="layers"><g class="legendfill"><path class="js-fill" d="M5,-2h30v6h-30z" style="stroke-width: 0; fill: rgb(171, 99, 250); fill-opacity: 0.5;"/></g><g class="legendlines"><path class="js-line" d="M5,-2h30" style="fill: none; stroke: rgb(171, 99, 250); stroke-opacity: 1; stroke-width: 0px;"/></g><g class="legendsymbols"><g class="legendpoints"/></g></g><rect class="legendtoggle" x="0" y="-9.5" width="82.3125" height="19" style="fill: rgb(0, 0, 0); fill-opacity: 0;"/></g><g class="traces" transform="translate(0,33.5)" style="opacity: 1;"><text class="legendtext" text-anchor="start" x="40" y="4.680000000000001" style="font-family: 'Open Sans', verdana, arial, sans-serif; font-size: 12px; fill: rgb(42, 63, 95); fill-opacity: 1; white-space: pre;">trace 2</text><g class="layers"><g class="legendfill"/><g class="legendlines"><path class="js-line" d="M5,0h30" style="fill: none; stroke: rgb(0, 204, 150); stroke-opacity: 1; stroke-width: 0px;"/></g><g class="legendsymbols"><g class="legendpoints"/></g></g><rect class="legendtoggle" x="0" y="-9.5" width="82.3125" height="19" style="fill: rgb(0, 0, 0); fill-opacity: 0;"/></g><g class="traces" transform="translate(0,52.5)" style="opacity: 1;"><text class="legendtext" text-anchor="start" x="40" y="4.680000000000001" style="font-family: 'Open Sans', verdana, arial, sans-serif; font-size: 12px; fill: rgb(42, 63, 95); fill-opacity: 1; white-space: pre;">trace 1</text><g class="layers" style="opacity: 1;"><g class="legendfill"/><g class="legendlines"><path class="js-line" d="M5,0h30" style="fill: none; stroke: rgb(239, 85, 59); stroke-opacity: 1; stroke-width: 2px;"/></g><g class="legendsymbols"><g class="legendpoints"/></g></g><rect class="legendtoggle" x="0" y="-9.5" width="82.3125" height="19" style="fill: rgb(0, 0, 0); fill-opacity: 0;"/></g><g class="traces" transform="translate(0,71.5)" style="opacity: 1;"><text class="legendtext" text-anchor="start" x="40" y="4.680000000000001" style="font-family: 'Open Sans', verdana, arial, sans-serif; font-size: 12px; fill: rgb(42, 63, 95); fill-opacity: 1; white-space: pre;">trace 0</text><g class="layers" style="opacity: 1;"><g class="legendfill"/><g class="legendlines"><path class="js-line" d="M5,0h30" style="fill: none; stroke: rgb(99, 110, 250); stroke-opacity: 1; stroke-width: 2px;"/></g><g class="legendsymbols"><g class="legendpoints"/></g></g><rect class="legendtoggle" x="0" y="-9.5" width="82.3125" height="19" style="fill: rgb(0, 0, 0); fill-opacity: 0;"/></g></g></g><rect class="scrollbar" rx="20" ry="3" width="0" height="0" style="fill: rgb(128, 139, 164); fill-opacity: 1;" x="0" y="0"/></g><g class="g-gtitle"/><g class="g-xtitle"/><g class="g-ytitle"/></g></svg>